<svg id="Layer_1" data-name="Layer 1" xmlns="http://www.w3.org/2000/svg" viewBox="0 0 236.53 190.84"><defs><style>.cls-1{fill:#c4d9e8;}.cls-2{fill:#5793ce;}.cls-3{fill:#d4ecff;}.cls-4{fill:#173d7a;}.cls-5{fill:#396caa;}.cls-6{fill:#d3d0cf;}.cls-7{fill:#f2f2f2;}</style></defs><title>Untitled-1</title><path class="cls-1" d="M670.55,450.17l-68-39.08c-4.58-2.64-4-7.26,1.28-10.31l66-38.08c5.28-3.05,13.27-3.39,17.85-.74l68,39.07c4.58,2.65,4,7.26-1.28,10.31l-66,38.09C683.12,452.48,675.13,452.81,670.55,450.17Z" transform="translate(-563.42 -289.46)"/><path class="cls-2" d="M750.24,361.57l-11.75-6.79,43.32-25c2.05-1.18,2.05-3.1,0-4.28l-44.26-25.56a8.22,8.22,0,0,0-7.42,0L686.8,325l-11.75-6.79,43.33-25c8.52-4.92,22.39-4.92,30.92,0l44.26,25.55c8.52,4.92,8.52,12.93,0,17.85Z" transform="translate(-563.42 -289.46)"/><path class="cls-3" d="M769.2,364.55c0-6.28-3.82-13.57-8.53-16.29l-78.5-45.32c-2.11-1.22-4-1.31-5.53-.48h0l-93.72,54.46,90.63,68.3,92.33-53.59a4,4,0,0,0,.82-.48h0C768.24,370,769.2,367.69,769.2,364.55Z" transform="translate(-563.42 -289.46)"/><path class="cls-4" d="M673.55,425.22l92.33-53.59a4,4,0,0,0,.82-.48h0c1.54-1.17,2.5-3.46,2.5-6.6a20.94,20.94,0,0,0-2.3-9.07L661.64,416.25Z" transform="translate(-563.42 -289.46)"/><path class="cls-2" d="M667.65,425l-78.5-45.31c-4.71-2.72-8.53-10-8.53-16.3h0c0-6.29,3.82-9.17,8.53-6.45l78.5,45.32c4.71,2.72,8.53,10,8.53,16.3h0C676.18,424.81,672.36,427.69,667.65,425Z" transform="translate(-563.42 -289.46)"/><polyline class="cls-5" points="87.57 111.7 57.37 129.42 73.49 138.58 89.95 128.92 89.91 124.72 89.77 124.81 89.75 124.51 97.07 124.46 97.03 120.32 96.87 116.84"/><polyline class="cls-3" points="83.52 109.85 57.32 125.22 73.45 134.38 89.91 124.72 89.71 120.31 97.03 120.26 96.84 116.13"/><path class="cls-5" d="M647.83,417.41a22.75,22.75,0,0,0-7.48-6.45,38.76,38.76,0,0,0-7.72-3.26l-11.89,7,16.13,9.16Z" transform="translate(-563.42 -289.46)"/><polyline class="cls-2" points="91.03 113.19 77.51 121.12 80.22 122.66 93.87 114.65"/><polygon class="cls-6" points="18.39 142.67 18.21 136.7 20.12 140.73 18.39 142.67"/><path class="cls-5" d="M591.74,445.56c13.18,7.48,34.45,7.33,47.52-.34,6.56-3.84,9.8-8.85,9.75-13.82h0l-.18-6.33-1.08,1.2c-1.52-3.12-4.4-6-8.68-8.48-13.18-7.49-34.45-7.34-47.52.33S578.56,438.07,591.74,445.56Zm19-11.17c3.43,1.95,3.46,5.15.05,7.14a13.65,13.65,0,0,1-12.37.09c-3.43-1.95-3.45-5.15-.05-7.14A13.65,13.65,0,0,1,610.77,434.39Z" transform="translate(-563.42 -289.46)"/><path class="cls-7" d="M591.56,439.59c13.18,7.48,34.46,7.34,47.52-.33s13-20-.19-27.44-34.45-7.34-47.52.33S578.39,432.1,591.56,439.59Zm19-11.17c3.43,1.95,3.45,5.15,0,7.15a13.71,13.71,0,0,1-12.38.08c-3.43-1.95-3.45-5.14,0-7.14A13.67,13.67,0,0,1,610.6,428.42Z" transform="translate(-563.42 -289.46)"/><path class="cls-2" d="M606.84,442.86a13.49,13.49,0,0,1-8.39-1.24c-2.46-1.4-3.16-3.44-2.1-5.22l-6-4.73-6.21-7c-4.81,7-2.28,15.3,7.57,20.9a41.37,41.37,0,0,0,14.74,4.68Z" transform="translate(-563.42 -289.46)"/><path class="cls-3" d="M591.56,439.59a40.13,40.13,0,0,0,9.92,3.89,53,53,0,0,0,7.87,1.36c10.49,1,21.67-.85,29.73-5.58,13.08-7.67,13-20-.19-27.44s-34.45-7.34-47.52.33S578.39,432.1,591.56,439.59Zm19-11.17c3.43,1.95,3.45,5.15,0,7.15a13.71,13.71,0,0,1-12.38.08c-3.43-1.95-3.45-5.14,0-7.14A13.67,13.67,0,0,1,610.6,428.42Z" transform="translate(-563.42 -289.46)"/><path class="cls-5" d="M585.34,426c.64-3.82,3.47-7.56,8.52-10.52,11.63-6.82,30.56-7,42.28-.29,5.83,3.31,8.77,7.67,8.84,12.06.83-5-2.06-10.12-8.7-13.89-11.72-6.66-30.65-6.53-42.28.3C588.15,417.08,585.27,421.55,585.34,426Z" transform="translate(-563.42 -289.46)"/><path class="cls-5" d="M577.41,480.3a13.13,13.13,0,0,1-6.59-1.7c-4.73-2.68-7.35-8.06-7.4-15.16-.09-12.95,8.92-28.81,20.09-35.37,6.12-3.59,12.09-4.09,16.81-1.41a13.26,13.26,0,0,1,4.89,4.89,20.47,20.47,0,0,1,2.51,10.28c.09,12.94-8.93,28.81-20.09,35.36A20.43,20.43,0,0,1,577.41,480.3Zm16.3-50.58a15.7,15.7,0,0,0-7.8,2.45c-9.86,5.79-17.82,19.8-17.74,31.24,0,5.32,1.81,9.25,5,11.06s7.47,1.32,12.06-1.38c9.87-5.78,17.83-19.8,17.75-31.23a16.11,16.11,0,0,0-1.86-7.91h0a8.58,8.58,0,0,0-3.14-3.16A8.48,8.48,0,0,0,593.71,429.72Z" transform="translate(-563.42 -289.46)"/><path class="cls-3" d="M599.92,440.23l9.38,2.3,1.35-7a13.71,13.71,0,0,1-12.38.08Z" transform="translate(-563.42 -289.46)"/><path class="cls-3" d="M591.56,439.59a40.13,40.13,0,0,0,9.92,3.89,53,53,0,0,0,7.87,1.36c10.49,1,21.67-.85,29.73-5.58l-38.2-.86Z" transform="translate(-563.42 -289.46)"/><path class="cls-5" d="M605.68,444.41a55.46,55.46,0,0,1-8.3-2.14v5.87a46.2,46.2,0,0,0,8.2,2.1C614.32,451.39,605.68,444.41,605.68,444.41Z" transform="translate(-563.42 -289.46)"/><path class="cls-4" d="M685.5,320.76c18.45,0,29.7,15,25.1,33.4s-23.26,33.38-41.74,33.38-29.72-14.93-25.08-33.49C648.36,335.71,667.09,320.76,685.5,320.76Zm7.67,20.59.06-.41c-.76-.12-1.5-.28-2.28-.37-3.75-.42-7.45-.19-10.71,3.56a32.52,32.52,0,0,0-2.5,3.3c-2.58,3.87-5.11,7.75-7.63,11.64a19.42,19.42,0,0,1-7.93,7.26,6.41,6.41,0,0,0-1,.79l0,.37c1.54.13,3.07.29,4.62.39,3.79.23,7-1.56,9.36-5,3.06-4.35,5.92-8.81,8.82-13.25a20.07,20.07,0,0,1,8.23-7.69A9.66,9.66,0,0,0,693.17,341.35Zm-22.29,31.48,0,.49c1.3.11,2.59.26,3.9.33a8,8,0,0,0,6.41-2.9,23.09,23.09,0,0,0,2.1-2.76q2.91-4.37,5.73-8.75a16.24,16.24,0,0,1,6.46-6.11,6,6,0,0,0,.89-.63l0-.4c-1.26-.11-2.52-.24-3.79-.31-2.88-.15-5.25,1.26-7.23,3.74-.53.66-1,1.36-1.47,2.06-2.2,3.31-4.37,6.64-6.57,10a13.65,13.65,0,0,1-5.08,4.52C671.76,372.29,671.32,372.57,670.88,372.83ZM658,355.78v.49c1.64.06,3.27.18,4.93.16a6.59,6.59,0,0,0,4.54-2.05,23.28,23.28,0,0,0,2.81-3.4c2.07-3,4-6.13,6-9.2a15.46,15.46,0,0,1,6.13-5.71,8.94,8.94,0,0,0,1-.68l0-.35c-2.45-.32-4.86-.9-7.63.48a12.36,12.36,0,0,0-4.61,4.61c-2,3-4,6.06-5.94,9.1a15.86,15.86,0,0,1-6.3,5.91A6.41,6.41,0,0,0,658,355.78Z" transform="translate(-563.42 -289.46)"/></svg>